<?xml version="1.0" encoding="UTF-8"?>
<svg id="Layer_1" xmlns="http://www.w3.org/2000/svg" version="1.1" viewBox="0 0 527.66 201.36">
  <!-- Generator: Adobe Illustrator 30.2.1, SVG Export Plug-In . SVG Version: 2.1.1 Build 1)  -->
  <defs>
    <style>
      .st0 {
        fill: #231f20;
      }

      .st1 {
        fill: #fff;
      }

      .st2 {
        fill: #37479d;
      }
    </style>
  </defs>
  <g>
    <polygon class="st2" points="448.87 201.36 0 201.36 63.56 10.41 512.43 10.41 448.87 201.36"/>
    <polygon class="st0" points="464.1 190.95 15.23 190.95 78.79 0 527.66 0 464.1 190.95"/>
  </g>
  <g>
    <path class="st1" d="M163.36,87.76c-1.89.39-4.49.58-6.5.39-1.3-.13-2.92-.46-3.71-1.63-1.62-2.53-1.88-5.52-2.34-8.45-.65-4.16-.58-9.36-.39-13.52.06-2.27.19-4.55.26-6.83.06-2.08.32-4.1.52-6.11.13-1.56.52-3.38,1.5-4.55.85-1.04,3.12-.97,4.42-1.1,2.47-.26,4.94-.45,7.48-.58,2.47-.13,8.06-.13,10.53,0,1.82.13,3.64.06,5.46.2,1.37.19,3.06,0,4.42.52,1.23.46,2.86,1.56,2.01,2.92-.52.91-1.5,2.67-2.54,2.86-2.27.52-4.81.06-7.15.19-3.38.19-9.95.39-13.26,1.04-2.08.39-5.33.33-5.85,2.8-.58,2.53-.58,4.75-.58,7.21.52-.06,1.04-.06,1.43-.13,1.69-.33,3.31-.58,4.94-.71,2.08-.13,7.35-.65,9.49-.78,2.34-.13,4.94-.06,6.96,1.43,2.47,1.89-2.08,3.97-3.38,4.29-1.36.39-2.73.46-4.16.65-2.02.33-7.28.98-9.3,1.3-2.08.39-4.03.98-6.04,1.62,0,1.62,0,4.49.06,6.18,0,.98-.13,2.73.58,3.45.85.84,3.38.13,4.49.06,1.82-.13,6.83-.85,8.71-1.04,1.76-.13,3.64-.65,5.46-.65,1.82-.07,3.58-.13,5.4-.26,1.62-.06,3.38-.52,5.07-.13,3.38.78,2.02,4.16-.33,5-7.54,2.67-15.67,2.86-23.66,4.36h0Z"/>
    <path class="st1" d="M195.14,65.27c0-3.77.39-6.44.39-9.95,0-.78,0-1.56-.06-2.47-.13-1.69.52-4.68,2.21-5.59,1.37-.78,3.19-.26,4.42.33,2.99,1.43,4.16,4.75,6.63,6.89,2.6,2.21,4.81,3.96,7.02,6.24,2.27,2.4,5.53,4.88,7.67,6.96.39.39,1.62,1.43,2.08,1.69-.2-2.73.13-5.72-.06-8.32-.13-2.73-.33-5.4-.33-8.19s-.78-5.46.98-7.74c.84-1.04,2.47-2.73,3.77-1.1,1.04,1.17,1.56,3.25,1.69,4.68.39,3.71,1.1,7.54,1.1,11.31,0,4.16,0,7.74.46,11.51.2,1.95-.13,5.07,0,7.02.06,1.1.2,2.21.2,3.31,0,.65-.07,1.3-.2,1.89-.32,1.23-.98,3.38-2.34,3.9-1.89.72-3.19-.52-4.1-2.08-.72-1.3-1.76-2.99-2.34-4.29-.58-1.3-1.36-2.02-2.34-3.38-2.02-2.73-4.75-5.2-7.41-7.8-2.47-2.41-4.49-4.62-7.41-6.76-1.17-.85-2.73-2.28-4.1-3.12-.19,1.95-.71,5.27-.97,7.35-.2,2.15-.33,3.31-.58,5.52-.26,2.28-.59,5.14-.91,7.61-.13,1.04-.13,2.41-.33,3.45-.13.78-.19,1.62-.58,2.4-.58,1.17-1.89,1.89-3.12,1.89-.98,0-2.02-.46-2.6-1.37-.78-1.17-.71-2.79-.52-4.09.39-3.51.65-6.96,1.1-10.4.33-2.47.58-4.81.58-7.28v-.02h0Z"/>
    <path class="st1" d="M273.27,51.16c-4.36.78-8.39,1.43-12.16,1.43-.07.65-.13,1.24-.13,1.82-.13,2.4-.19,4.88-.19,7.28,0,3.19.13,6.44.39,9.62.13,2.41.33,4.88.33,7.35,0,1.56-.07,3.19-.26,4.68-.13,1.1-.33,3.06-1.3,3.84-1.17.84-2.86-.39-3.64-1.3-1.17-1.43-1.3-3.58-1.62-5.33-.46-2.34-.84-4.75-1.11-7.09-.13-.91-.13-1.88-.13-2.86,0-1.89.13-3.77.13-5.66s.07-3.83.07-5.72-.07-3.9-.13-5.85c-4.68.65-8.13,1.3-12.74,2.01-1.43.2-2.47.13-3.19-1.56-.85-2.02.39-2.86,1.62-4.03,1.17-1.04,2.27-1.82,3.71-2.28,1.1-.32,2.28-.52,3.38-.71,1.11-.19.85-.06,1.95-.13,2.41-.2,4.75-.58,7.08-.78,2.15-.19,4.23-.26,6.31-.52,3.96-.46,6.31-.52,10.27-.71.65-.06,1.37-.06,2.08-.06,1.75,0,3.51.32,4.55,1.95.78,1.1.07,2.53-.78,3.38-1.17,1.04-3.12.98-4.49,1.23h0Z"/>
    <path class="st1" d="M296.47,87.76c-1.88.39-4.48.58-6.5.39-1.3-.13-2.92-.46-3.71-1.63-1.62-2.53-1.88-5.52-2.34-8.45-.65-4.16-.58-9.36-.39-13.52.07-2.27.2-4.55.26-6.83.06-2.08.33-4.1.52-6.11.13-1.56.52-3.38,1.5-4.55.85-1.04,3.12-.97,4.42-1.1,2.47-.26,4.94-.45,7.48-.58,2.47-.13,8.06-.13,10.53,0,1.82.13,3.64.06,5.46.2,1.36.19,3.05,0,4.42.52,1.23.46,2.86,1.56,2.01,2.92-.52.91-1.5,2.67-2.54,2.86-2.27.52-4.81.06-7.15.19-3.38.19-9.95.39-13.26,1.04-2.08.39-5.33.33-5.85,2.8-.58,2.53-.58,4.75-.58,7.21.52-.06,1.04-.06,1.43-.13,1.69-.33,3.32-.58,4.94-.71,2.08-.13,7.35-.65,9.49-.78,2.34-.13,4.94-.06,6.96,1.43,2.47,1.89-2.08,3.97-3.38,4.29-1.37.39-2.73.46-4.16.65-2.01.33-7.28.98-9.29,1.3-2.08.39-4.03.98-6.05,1.62,0,1.62,0,4.49.07,6.18,0,.98-.13,2.73.58,3.45.84.84,3.38.13,4.49.06,1.82-.13,6.83-.85,8.71-1.04,1.75-.13,3.64-.65,5.46-.65,1.82-.07,3.58-.13,5.4-.26,1.62-.06,3.38-.52,5.07-.13,3.38.78,2.01,4.16-.33,5-7.54,2.67-15.67,2.86-23.66,4.36h0Z"/>
    <path class="st1" d="M368.63,78.46c0,1.3-.13,2.6-.2,3.9-.13,2.02-1.3,4.88-3.31,4.88-.52,0-1.11-.26-1.76-.72-.71-.58-1.82-1.69-2.08-2.67-.19-.58-.19-1.62-.19-2.6v-2.67c-.33-3.06-3.25-3.19-5.92-4.29-1.62-.58-3.05-.78-4.81-.91-2.08-.19-4.29-.58-6.44-.52-1.56.06-5.98.19-7.41.78-1.3.45-1.24,1.75-1.3,3.06-.07,1.36-.07,2.79.13,4.16.13.78.26,1.49.26,2.27,0,.58-.06,1.23-.33,1.82-.65,1.37-1.23,2.41-2.6,2.99-1.37.52-2.28,0-2.92-1.3-.91-2.08-.72-4.16-1.17-6.37-.19-1.04-.32-2.08-.46-3.19-.26-2.08-.39-4.16-.39-6.24,0-.91,0-1.82.07-2.73.06-1.89.13-3.77.13-5.66,0-2.54-.13-5.14-.46-7.6-.26-1.56-.71-3.19-.98-4.81-.26-1.5.46-2.34,1.89-2.86,1.62-.65,3.38-.85,5.13-1.3,2.86-.71,8.45-1.17,11.38-1.43,1.04-.07,2.14-.13,3.18-.13,1.43,0,2.86.06,4.29.06h2.02c1.17,0,2.34.07,3.44.33,2.6.58,4.29,2.08,5.2,4.55.58,1.62.91,3.12.91,4.55,0,3.12-1.36,5.79-3.58,8.65-.97,1.3-3.64,3.45-4.88,4.55,4.75,1.3,10.92,1.82,12.61,7.35.39,1.37.52,2.73.52,4.1h.03ZM350.68,52.01c-.85,0-1.62.06-2.21.06-1.76,0-3.51.13-5.2.26-1.04.06-5.39.19-6.43.39-.39.07-2.08.46-2.08.46,0,0,.06,1.43.13,1.76.13.58.2,1.23.26,1.88.13,1.5.2,2.99.2,4.49,0,1.23-.07,2.4-.07,3.64.52.13,2.02.06,2.54.06.65,0,3.83.06,4.49.06.91.06,3.58-.33,4.42-.58,2.21-.85,5.92-3.58,7.15-5.27,1.37-1.89,2.6-3.19,2.21-4.88-.46-2.01-3.18-2.34-5.39-2.34h-.02Z"/>
    <path class="st1" d="M131.21,115.38c-4.35.58-9.04,1.56-13,1.56-1.17,2.99-2.15,5.92-3.05,8.71-2.08,6.43-3.38,12.8-5.46,19.24-.39,1.3-.65,1.82-.71,2.21-1.3,3.9-3.51,9.36-7.41,9.36-4.88,0-5.13-3.83-4.55-7.34.84-5.01,2.01-9.43,3.31-13.39,1.43-4.29,2.93-8.65,4.29-12.81.72-2.21.85-2.54,1.5-4.75-2.54.33-4.94.71-7.35,1.04-6.24,1.04-6.83,1.04-7.15,1.04-1.75,0-4.23-1.11-3.06-4.81.91-2.79,6.63-6.3,10.01-7.28,5-1.49,10.4-1.49,14.89-1.95l7.28-.65c5.07-.46,9.49-.85,14.5-.85,2.54,0,6.76,1.04,5.53,5.07-.46,1.43-1.76,2.8-3.06,3.77-1.75,1.3-3.77,1.43-6.5,1.82h-.01Z"/>
    <path class="st1" d="M168.26,156.46c-5.66,0-2.02-10.86-.26-16.45.65-1.95.98-3.12,1.3-4.36-8.13,2.02-16.84,2.93-24.25,2.99-.98,2.99-1.75,6.04-2.79,9.04-1.11,3.45-3.71,9.82-8.06,9.82-5.59,0-2.79-11.31-.91-17.03,2.54-8,5.33-15.99,9.56-23.66,1.62-3.05,4.03-7.41,8.71-7.41,3.25,0,3.19,4.68,2.02,8.12-1.23,3.77-2.92,6.57-3.96,9.3,7.35-.2,15.15-1.69,22.62-3.38.98-3.96,1.69-8.58,3.12-12.87.85-2.67,4.29-6.83,7.93-6.83,5.07,0,1.95,10.6,1.17,15.34-1.04,4.55-2.21,9.17-3.19,13.78-.78,3.38-1.36,6.76-2.53,10.14-.33,1.1-.78,2.34-1.17,3.38-1.1,2.92-5,10.08-9.29,10.08h-.02,0Z"/>
    <path class="st1" d="M197.77,156.72c-1.95.39-4.16.59-6.05.59s-5.72,0-6.56-2.73c-.78-2.6-.46-5.46.46-10.14.46-2.86,1.5-6.44,2.54-9.75,2.4-7.28,4.81-13.78,7.67-20.54.78-2.01,2.28-4.49,4.1-6.04,1.82-1.62,5.07-1.82,6.76-1.82,5.59-.52,8.58-.78,14.76-.78,5.79.13,8.45-.13,12.22.26l1.95.2c3.12.39,6.7.65,5.46,4.55-2.01,6.04-9.69,5.85-13.78,5.85-3.25,0-11.83.46-17.62,1.43-1.69.19-3.9.52-4.42,1.62-1.1,2.08-1.95,3.96-2.53,6.04,5.46-.65,11.64-1.69,18.4-1.69,2.79,0,8.39,1.24,7.35,4.62-.91,2.54-6.04,4.75-7.61,5.14-5.65,1.36-14.76,1.69-22.04,3.64-.71,1.88-1.3,4.1-2.15,6.83-.26.91-.58,1.75.13,1.75,1.3,0,4.29-.32,13.65-1.56,4.62-.46,10.99-1.37,16.9-1.37,3.97,0,5.01,2.02,4.29,4.1-.58,1.88-2.86,3.96-5.33,4.94-9.49,3.06-19.05,3.25-28.54,4.88v-.02h-.01Z"/>
    <path class="st1" d="M275.64,113.17c.91-2.86,3.32-6.37,7.22-6.37,1.88,0,2.99,1.24,3.77,2.34,1.62,2.21,1.11,4.55.46,7.21-1.37,5.27-1.62,14.56-.58,20.93l5.33-8.45c.65-.97,1.11-2.28,1.62-3.45,3.25-7.87,7.41-12.54,12.03-12.54,6.7,0,5.72,5.2,4.88,9.36-.84,4.03-.58,5.79-.26,8.06.26,3.38,0,8.38,1.11,12.16,1.23-1.82,2.47-4.16,3.45-6.05,1.3-2.67,2.14-4.35,3.31-6.83,3.45-7.34,4.55-10.66,5.59-13.78l1.56-4.81c1.3-3.83,5.66-7.28,8.71-7.28,4.42,0,2.99,6.63,1.23,12.09-1.37,4.23-2.41,6.5-3.31,8.78-4.81,10.86-6.05,14.82-12.48,23.53-3.06,4.16-7.74,9.95-11.96,9.95-2.6,0-5.53-1.3-6.3-3.64-1.04-4.42-1.95-11.83-2.41-17.62-2.99,3.96-6.44,9.29-8.45,13.65-2.08,4.29-5.85,7.34-9.36,7.34-6.89,0-5.14-6.11-5.72-10.21-1.37-9.17-2.92-23.47.58-34.39l-.02.02h0Z"/>
    <path class="st1" d="M345.45,156.72c-1.95.39-4.16.59-6.04.59s-5.72,0-6.57-2.73c-.78-2.6-.46-5.46.46-10.14.46-2.86,1.5-6.44,2.54-9.75,2.41-7.28,4.81-13.78,7.67-20.54.78-2.01,2.28-4.49,4.1-6.04,1.82-1.62,5.07-1.82,6.76-1.82,5.59-.52,8.58-.78,14.76-.78,5.79.13,8.45-.13,12.22.26l1.95.2c3.12.39,6.7.65,5.46,4.55-2.02,6.04-9.69,5.85-13.78,5.85-3.25,0-11.83.46-17.62,1.43-1.69.19-3.9.52-4.42,1.62-1.11,2.08-1.95,3.96-2.54,6.04,5.46-.65,11.63-1.69,18.4-1.69,2.79,0,8.39,1.24,7.35,4.62-.91,2.54-6.05,4.75-7.61,5.14-5.66,1.36-14.76,1.69-22.04,3.64-.71,1.88-1.3,4.1-2.14,6.83-.26.91-.59,1.75.13,1.75,1.3,0,4.29-.32,13.65-1.56,4.62-.46,10.99-1.37,16.9-1.37,3.96,0,5,2.02,4.29,4.1-.58,1.88-2.86,3.96-5.33,4.94-9.49,3.06-19.05,3.25-28.54,4.88v-.02h0Z"/>
    <path class="st1" d="M438.86,136.18c-.78,2.47-2.6,5.33-4.1,7.54-4.36,6.44-11.44,9.62-17.49,10.6-8.06,1.36-17.55,2.14-25.22,2.14h-1.69c-2.86,0-6.31-.39-6.24-3.9,0-2.99,1.11-6.43,2.01-9.62.91-3.18,1.62-6.83,2.8-10.53,1.43-4.29,3.31-8.52,5.13-12.54l1.75-3.9v.06c.84-2.34,1.89-4.68,4.55-6.7,2.53-1.82,5.13-2.34,7.6-2.86l-.06.06c4.03-.85,7.47-.98,10.53-1.23,3.45-.33,5.98-.65,8.45-.65,5.59,0,11.57,1.76,9.49,8.19-1.5,4.75-5.98,9.1-10.86,12.74l5.72.71c2.54.39,5,1.37,6.7,3.06,1.69,1.82,1.75,4.16.91,6.83h.02,0ZM426.64,138.26c0-.13-2.02-.98-2.93-.98-3.31-.84-7.21-.84-10.59-.84-2.47,0-4.94.39-7.48.39-.91,0-5.59.33-6.76.78-.65.71-2.41,6.7-1.95,7.48,6.17,0,21.58.97,27.11-4.03.72-.58,2.28-2.02,2.6-2.79h0ZM403.17,125.46l3.83-.91c3.05-.65,6.96-1.62,9.49-3.32,2.28-1.62,4.03-2.92,6.04-5-1.23-.2-2.92-.2-4.29-.2-2.86,0-11.9,1.37-11.9,1.37,0,0-2.47,5.79-3.18,8.06h.01Z"/>
  </g>
</svg>