<?xml version="1.0" encoding="UTF-8"?>
<svg id="Layer_1" xmlns="http://www.w3.org/2000/svg" version="1.1" viewBox="0 0 2592 1728">
  <!-- Generator: Adobe Illustrator 30.2.1, SVG Export Plug-In . SVG Version: 2.1.1 Build 1)  -->
  <defs>
    <style>
      .st0 {
        fill: #b72d2c;
      }

      .st1 {
        fill: none;
        stroke: #231f20;
        stroke-linecap: round;
        stroke-miterlimit: 10;
        stroke-width: 5.44px;
      }
    </style>
  </defs>
  <rect class="st0" width="2592" height="1728"/>
  <g>
    <line class="st1" x1="1296" y1="864" x2="1464.93" y2="-851.19"/>
    <line class="st1" x1="1296" y1="864" x2="1127.07" y2="-851.19"/>
    <path class="st1" d="M1458.03-781.14c-101.79,51.87-222.26,51.87-324.05,0"/>
    <path class="st1" d="M1443.56-634.26c-92.7,47.23-202.41,47.23-295.11,0"/>
    <path class="st1" d="M1429.1-487.37c-83.62,42.6-182.57,42.6-266.19,0"/>
    <path class="st1" d="M1414.62-340.48c-74.52,37.97-162.72,37.97-237.25,0"/>
    <path class="st1" d="M1400.15-193.59c-65.43,33.34-142.87,33.34-208.31,0"/>
    <path class="st1" d="M1385.69-46.7c-56.35,28.71-123.04,28.71-179.39,0"/>
    <path class="st1" d="M1371.22,100.18c-47.26,24.08-103.19,24.08-150.44,0"/>
    <path class="st1" d="M1356.76,247.07c-38.17,19.45-83.35,19.45-121.52,0"/>
    <path class="st1" d="M1342.29,393.96c-29.08,14.82-63.5,14.82-92.58,0"/>
    <path class="st1" d="M1327.82,540.85c-19.99,10.19-43.65,10.19-63.64,0"/>
    <path class="st1" d="M1313.36,687.74c-10.91,5.56-23.81,5.56-34.72,0"/>
    <line class="st1" x1="1296" y1="864" x2="1127.07" y2="-851.19"/>
    <line class="st1" x1="1296" y1="864" x2="795.7" y2="-785.27"/>
    <path class="st1" d="M1133.96-781.14c-89.72,70.73-207.87,94.23-317.83,63.22"/>
    <path class="st1" d="M1148.43-634.25c-81.7,64.41-189.31,85.81-289.44,57.57"/>
    <path class="st1" d="M1162.9-487.37c-73.7,58.1-170.75,77.4-261.08,51.93"/>
    <path class="st1" d="M1177.36-340.48c-65.68,51.78-152.19,68.99-232.69,46.28"/>
    <path class="st1" d="M1191.83-193.59c-57.67,45.46-133.62,60.57-204.3,40.64"/>
    <path class="st1" d="M1206.3-46.7c-49.66,39.15-115.07,52.16-175.94,35"/>
    <path class="st1" d="M1220.76,100.19c-41.65,32.84-96.51,43.75-147.55,29.35"/>
    <path class="st1" d="M1235.24,247.07c-33.64,26.52-77.95,35.34-119.19,23.71"/>
    <path class="st1" d="M1249.7,393.96c-25.63,20.21-59.39,26.92-90.8,18.06"/>
    <path class="st1" d="M1264.16,540.85c-17.62,13.89-40.82,18.51-62.41,12.42"/>
    <path class="st1" d="M1278.64,687.74c-9.61,7.58-22.27,10.1-34.05,6.77"/>
    <line class="st1" x1="1296" y1="864" x2="795.7" y2="-785.27"/>
    <line class="st1" x1="1296" y1="864" x2="483.55" y2="-655.98"/>
    <path class="st1" d="M816.12-717.92c-74.2,86.87-185.5,132.97-299.39,124.01"/>
    <path class="st1" d="M858.97-576.67c-67.57,79.11-168.93,121.1-272.65,112.93"/>
    <path class="st1" d="M901.82-435.43c-60.95,71.36-152.37,109.23-245.93,101.87"/>
    <path class="st1" d="M944.66-294.19c-54.32,63.6-135.81,97.35-219.19,90.79"/>
    <path class="st1" d="M987.5-152.94c-47.69,55.84-119.24,85.48-192.45,79.72"/>
    <path class="st1" d="M1030.35-11.7c-41.07,48.09-102.68,73.61-165.73,68.65"/>
    <path class="st1" d="M1073.2,129.54c-34.45,40.33-86.12,61.73-138.99,57.57"/>
    <path class="st1" d="M1116.05,270.78c-27.82,32.58-69.56,49.87-112.27,46.5"/>
    <path class="st1" d="M1158.89,412.03c-21.2,24.82-52.99,37.99-85.53,35.43"/>
    <path class="st1" d="M1201.73,553.27c-14.57,17.06-36.43,26.11-58.79,24.35"/>
    <path class="st1" d="M1244.58,694.51c-7.95,9.31-19.87,14.25-32.07,13.29"/>
    <line class="st1" x1="1296" y1="864" x2="483.55" y2="-655.98"/>
    <line class="st1" x1="1296" y1="864" x2="202.63" y2="-468.27"/>
    <path class="st1" d="M516.73-593.9c-55.82,99.68-155.99,166.61-269.44,180.03"/>
    <path class="st1" d="M586.3-463.73c-50.84,90.77-142.06,151.73-245.38,163.96"/>
    <path class="st1" d="M655.89-333.56c-45.85,81.88-128.14,136.86-221.33,147.89"/>
    <path class="st1" d="M725.46-203.39c-40.87,72.98-114.2,121.98-197.26,131.81"/>
    <path class="st1" d="M795.03-73.22c-35.88,64.07-100.27,107.1-173.2,115.73"/>
    <path class="st1" d="M864.62,56.95c-30.9,55.18-86.35,92.23-149.15,99.66"/>
    <path class="st1" d="M934.19,187.12c-25.92,46.28-72.42,77.35-125.09,83.58"/>
    <path class="st1" d="M1003.77,317.29c-20.93,37.38-58.5,62.48-101.04,67.51"/>
    <path class="st1" d="M1073.35,447.46c-15.95,28.48-44.56,47.6-76.98,51.43"/>
    <path class="st1" d="M1142.92,577.63c-10.96,19.57-30.63,32.72-52.91,35.36"/>
    <path class="st1" d="M1212.51,707.8c-5.98,10.68-16.71,17.85-28.87,19.29"/>
    <line class="st1" x1="1296" y1="864" x2="202.63" y2="-468.27"/>
    <line class="st1" x1="1296" y1="864" x2="-36.27" y2="-229.37"/>
    <path class="st1" d="M247.28-413.86c-35.3,108.65-120.49,193.84-229.14,229.14"/>
    <path class="st1" d="M340.91-299.76c-32.15,98.95-109.73,176.53-208.68,208.68"/>
    <path class="st1" d="M434.55-185.67C405.55-96.42,335.58-26.45,246.33,2.55"/>
    <path class="st1" d="M528.18-71.58c-25.85,79.55-88.21,141.91-167.76,167.76"/>
    <path class="st1" d="M621.82,42.52c-22.69,69.84-77.45,124.6-147.29,147.29"/>
    <path class="st1" d="M715.46,156.61c-19.54,60.15-66.7,107.3-126.84,126.84"/>
    <path class="st1" d="M809.09,270.71c-16.39,50.44-55.94,89.99-106.38,106.38"/>
    <path class="st1" d="M902.73,384.8c-13.24,40.75-45.18,72.69-85.93,85.93"/>
    <path class="st1" d="M996.36,498.9c-10.09,31.04-34.42,55.38-65.46,65.46"/>
    <path class="st1" d="M1090,613c-6.93,21.34-23.66,38.07-45,45"/>
    <path class="st1" d="M1183.64,727.09c-3.78,11.64-12.91,20.77-24.55,24.55"/>
    <line class="st1" x1="1296" y1="864" x2="-36.27" y2="-229.37"/>
    <line class="st1" x1="1296" y1="864" x2="-223.98" y2="51.55"/>
    <path class="st1" d="M18.13-184.71C4.7-71.26-62.23,28.91-161.9,84.73"/>
    <path class="st1" d="M132.22-91.07C120,12.24,59.04,103.47-31.73,154.3"/>
    <path class="st1" d="M246.32,2.56c-11.03,93.19-66.01,175.48-147.89,221.33"/>
    <path class="st1" d="M360.42,96.19c-9.83,83.06-58.83,156.4-131.81,197.26"/>
    <path class="st1" d="M474.51,189.83c-8.63,72.93-51.65,137.32-115.73,173.2"/>
    <path class="st1" d="M588.61,283.46c-7.43,62.8-44.48,118.25-99.66,149.15"/>
    <path class="st1" d="M702.7,377.1c-6.23,52.67-37.31,99.17-83.58,125.09"/>
    <path class="st1" d="M816.8,470.73c-5.04,42.55-30.13,80.11-67.51,101.04"/>
    <path class="st1" d="M930.89,564.37c-3.84,32.41-22.96,61.03-51.43,76.98"/>
    <path class="st1" d="M1044.99,658.01c-2.64,22.28-15.78,41.95-35.36,52.91"/>
    <path class="st1" d="M1159.09,751.64c-1.44,12.15-8.61,22.89-19.29,28.87"/>
    <line class="st1" x1="1296" y1="864" x2="-223.98" y2="51.55"/>
    <line class="st1" x1="1296" y1="864" x2="-353.27" y2="363.7"/>
    <path class="st1" d="M-161.91,84.74c8.96,113.89-37.14,225.19-124.01,299.39"/>
    <path class="st1" d="M-31.74,154.32c8.16,103.72-33.82,205.08-112.93,272.65"/>
    <path class="st1" d="M98.43,223.89c7.36,93.56-30.51,184.98-101.87,245.93"/>
    <path class="st1" d="M228.6,293.47c6.56,83.38-27.19,164.87-90.79,219.19"/>
    <path class="st1" d="M358.77,363.05c5.76,73.21-23.87,144.76-79.72,192.45"/>
    <path class="st1" d="M488.94,432.62c4.96,63.05-20.56,124.66-68.65,165.73"/>
    <path class="st1" d="M619.11,502.2c4.16,52.87-17.24,104.55-57.57,138.99"/>
    <path class="st1" d="M749.29,571.78c3.36,42.71-13.93,84.45-46.5,112.27"/>
    <path class="st1" d="M879.45,641.36c2.56,32.54-10.61,64.34-35.43,85.53"/>
    <path class="st1" d="M1009.62,710.94c1.76,22.37-7.29,44.22-24.35,58.79"/>
    <path class="st1" d="M1139.8,780.51c.96,12.2-3.98,24.13-13.29,32.07"/>
    <line class="st1" x1="1296" y1="864" x2="-353.27" y2="363.7"/>
    <line class="st1" x1="1296" y1="864" x2="-419.19" y2="695.07"/>
    <path class="st1" d="M-285.92,384.13c31.01,109.95,7.51,228.11-63.22,317.83"/>
    <path class="st1" d="M-144.68,426.98c28.24,100.13,6.84,207.74-57.57,289.44"/>
    <path class="st1" d="M-3.44,469.82c25.47,90.32,6.17,187.38-51.93,261.08"/>
    <path class="st1" d="M137.81,512.67c22.7,80.5,5.5,167.01-46.28,232.69"/>
    <path class="st1" d="M279.05,555.52c19.93,70.68,4.83,146.63-40.64,204.3"/>
    <path class="st1" d="M420.29,598.36c17.17,60.87,4.16,126.27-35,175.94"/>
    <path class="st1" d="M561.54,641.21c14.4,51.05,3.49,105.9-29.35,147.55"/>
    <path class="st1" d="M702.78,684.05c11.63,41.23,2.82,85.54-23.71,119.19"/>
    <path class="st1" d="M844.02,726.9c8.86,31.41,2.15,65.17-18.06,90.8"/>
    <path class="st1" d="M985.26,769.75c6.09,21.59,1.47,44.8-12.42,62.41"/>
    <path class="st1" d="M1126.51,812.59c3.32,11.78.8,24.44-6.77,34.05"/>
    <line class="st1" x1="1296" y1="864" x2="-419.19" y2="695.07"/>
    <line class="st1" x1="1296" y1="864" x2="-419.19" y2="1032.93"/>
    <path class="st1" d="M-349.14,701.97c51.87,101.79,51.87,222.26,0,324.05"/>
    <path class="st1" d="M-202.26,716.44c47.23,92.7,47.23,202.41,0,295.11"/>
    <path class="st1" d="M-55.37,730.9c42.6,83.62,42.6,182.57,0,266.19"/>
    <path class="st1" d="M91.52,745.38c37.97,74.52,37.97,162.72,0,237.25"/>
    <path class="st1" d="M238.41,759.85c33.34,65.43,33.34,142.87,0,208.31"/>
    <path class="st1" d="M385.3,774.31c28.71,56.35,28.71,123.04,0,179.39"/>
    <path class="st1" d="M532.18,788.78c24.08,47.26,24.08,103.19,0,150.44"/>
    <path class="st1" d="M679.07,803.24c19.45,38.17,19.45,83.35,0,121.52"/>
    <path class="st1" d="M825.96,817.71c14.82,29.08,14.82,63.5,0,92.58"/>
    <path class="st1" d="M972.85,832.18c10.19,19.99,10.19,43.65,0,63.64"/>
    <path class="st1" d="M1119.74,846.64c5.56,10.91,5.56,23.81,0,34.72"/>
    <line class="st1" x1="1296" y1="864" x2="-419.19" y2="1032.93"/>
    <line class="st1" x1="1296" y1="864" x2="-353.27" y2="1364.3"/>
    <path class="st1" d="M-349.14,1026.04c70.73,89.72,94.23,207.87,63.22,317.83"/>
    <path class="st1" d="M-202.25,1011.57c64.41,81.7,85.81,189.31,57.57,289.44"/>
    <path class="st1" d="M-55.37,997.1C2.73,1070.8,22.04,1167.86-3.44,1258.18"/>
    <path class="st1" d="M91.52,982.64c51.78,65.68,68.99,152.19,46.28,232.69"/>
    <path class="st1" d="M238.41,968.17c45.46,57.67,60.57,133.62,40.64,204.3"/>
    <path class="st1" d="M385.3,953.7c39.15,49.66,52.16,115.07,35,175.94"/>
    <path class="st1" d="M532.19,939.24c32.84,41.65,43.75,96.51,29.35,147.55"/>
    <path class="st1" d="M679.07,924.76c26.52,33.64,35.34,77.95,23.71,119.19"/>
    <path class="st1" d="M825.96,910.3c20.21,25.63,26.92,59.39,18.06,90.8"/>
    <path class="st1" d="M972.85,895.84c13.89,17.62,18.51,40.82,12.42,62.41"/>
    <path class="st1" d="M1119.74,881.36c7.58,9.61,10.1,22.27,6.77,34.05"/>
    <line class="st1" x1="1296" y1="864" x2="-353.27" y2="1364.3"/>
    <line class="st1" x1="1296" y1="864" x2="-223.98" y2="1676.45"/>
    <path class="st1" d="M-285.92,1343.88c86.87,74.2,132.97,185.5,124.01,299.39"/>
    <path class="st1" d="M-144.67,1301.03c79.11,67.57,121.1,168.93,112.93,272.65"/>
    <path class="st1" d="M-3.43,1258.18c71.36,60.95,109.23,152.37,101.87,245.93"/>
    <path class="st1" d="M137.81,1215.34c63.6,54.32,97.35,135.81,90.79,219.19"/>
    <path class="st1" d="M279.06,1172.5c55.84,47.69,85.48,119.24,79.72,192.45"/>
    <path class="st1" d="M420.3,1129.65c48.09,41.07,73.61,102.68,68.65,165.73"/>
    <path class="st1" d="M561.54,1086.8c40.33,34.45,61.73,86.12,57.57,138.99"/>
    <path class="st1" d="M702.78,1043.95c32.58,27.82,49.87,69.56,46.5,112.27"/>
    <path class="st1" d="M844.03,1001.11c24.82,21.2,37.99,52.99,35.43,85.53"/>
    <path class="st1" d="M985.27,958.27c17.06,14.57,26.11,36.43,24.35,58.79"/>
    <path class="st1" d="M1126.51,915.42c9.31,7.95,14.25,19.87,13.29,32.07"/>
    <line class="st1" x1="1296" y1="864" x2="-223.98" y2="1676.45"/>
    <line class="st1" x1="1296" y1="864" x2="-36.27" y2="1957.37"/>
    <path class="st1" d="M-161.9,1643.27c99.68,55.82,166.61,155.99,180.03,269.44"/>
    <path class="st1" d="M-31.73,1573.7c90.77,50.84,151.73,142.06,163.96,245.38"/>
    <path class="st1" d="M98.44,1504.11c81.88,45.85,136.86,128.14,147.89,221.33"/>
    <path class="st1" d="M228.61,1434.54c72.98,40.87,121.98,114.2,131.81,197.26"/>
    <path class="st1" d="M358.78,1364.97c64.07,35.88,107.1,100.27,115.73,173.2"/>
    <path class="st1" d="M488.95,1295.38c55.18,30.9,92.23,86.35,99.66,149.15"/>
    <path class="st1" d="M619.12,1225.81c46.28,25.92,77.35,72.42,83.58,125.09"/>
    <path class="st1" d="M749.29,1156.23c37.38,20.93,62.48,58.5,67.51,101.04"/>
    <path class="st1" d="M879.46,1086.65c28.48,15.95,47.6,44.56,51.43,76.98"/>
    <path class="st1" d="M1009.63,1017.08c19.57,10.96,32.72,30.63,35.36,52.91"/>
    <path class="st1" d="M1139.8,947.49c10.68,5.98,17.85,16.71,19.29,28.87"/>
    <line class="st1" x1="1296" y1="864" x2="-36.27" y2="1957.37"/>
    <line class="st1" x1="1296" y1="864" x2="202.63" y2="2196.27"/>
    <path class="st1" d="M18.14,1912.72c108.65,35.3,193.84,120.49,229.14,229.14"/>
    <path class="st1" d="M132.24,1819.09c98.95,32.15,176.53,109.73,208.68,208.68"/>
    <path class="st1" d="M246.33,1725.45c89.25,29,159.23,98.97,188.23,188.23"/>
    <path class="st1" d="M360.42,1631.82c79.55,25.85,141.91,88.21,167.76,167.76"/>
    <path class="st1" d="M474.52,1538.18c69.84,22.69,124.6,77.45,147.29,147.29"/>
    <path class="st1" d="M588.61,1444.54c60.15,19.54,107.3,66.7,126.84,126.84"/>
    <path class="st1" d="M702.71,1350.91c50.44,16.39,89.99,55.94,106.38,106.38"/>
    <path class="st1" d="M816.8,1257.27c40.75,13.24,72.69,45.18,85.93,85.93"/>
    <path class="st1" d="M930.9,1163.64c31.04,10.09,55.38,34.42,65.46,65.46"/>
    <path class="st1" d="M1045,1070c21.34,6.93,38.07,23.66,45,45"/>
    <path class="st1" d="M1159.09,976.36c11.64,3.78,20.77,12.91,24.55,24.55"/>
    <line class="st1" x1="1296" y1="864" x2="202.63" y2="2196.27"/>
    <line class="st1" x1="1296" y1="864" x2="483.55" y2="2383.98"/>
    <path class="st1" d="M247.29,2141.87c113.45,13.43,213.62,80.36,269.44,180.03"/>
    <path class="st1" d="M340.93,2027.78c103.32,12.23,194.54,73.18,245.38,163.96"/>
    <path class="st1" d="M434.56,1913.68c93.19,11.03,175.48,66.01,221.33,147.89"/>
    <path class="st1" d="M528.19,1799.58c83.06,9.83,156.4,58.83,197.26,131.81"/>
    <path class="st1" d="M621.83,1685.49c72.93,8.63,137.32,51.65,173.2,115.73"/>
    <path class="st1" d="M715.46,1571.39c62.8,7.43,118.25,44.48,149.15,99.66"/>
    <path class="st1" d="M809.1,1457.3c52.67,6.23,99.17,37.31,125.09,83.58"/>
    <path class="st1" d="M902.73,1343.2c42.55,5.04,80.11,30.13,101.04,67.51"/>
    <path class="st1" d="M996.37,1229.11c32.41,3.84,61.03,22.96,76.98,51.43"/>
    <path class="st1" d="M1090.01,1115.01c22.28,2.64,41.95,15.78,52.91,35.36"/>
    <path class="st1" d="M1183.64,1000.91c12.15,1.44,22.89,8.61,28.87,19.29"/>
    <line class="st1" x1="1296" y1="864" x2="483.55" y2="2383.98"/>
    <line class="st1" x1="1296" y1="864" x2="795.7" y2="2513.27"/>
    <path class="st1" d="M516.74,2321.91c113.89-8.96,225.19,37.14,299.39,124.01"/>
    <path class="st1" d="M586.32,2191.74c103.72-8.16,205.08,33.82,272.65,112.93"/>
    <path class="st1" d="M655.89,2061.57c93.56-7.36,184.98,30.51,245.93,101.87"/>
    <path class="st1" d="M725.47,1931.4c83.38-6.56,164.87,27.19,219.19,90.79"/>
    <path class="st1" d="M795.05,1801.23c73.21-5.76,144.76,23.87,192.45,79.72"/>
    <path class="st1" d="M864.62,1671.06c63.05-4.96,124.66,20.56,165.73,68.65"/>
    <path class="st1" d="M934.2,1540.89c52.87-4.16,104.55,17.24,138.99,57.57"/>
    <path class="st1" d="M1003.78,1410.71c42.71-3.36,84.45,13.93,112.27,46.5"/>
    <path class="st1" d="M1073.36,1280.55c32.54-2.56,64.34,10.61,85.53,35.43"/>
    <path class="st1" d="M1142.94,1150.38c22.37-1.76,44.22,7.29,58.79,24.35"/>
    <path class="st1" d="M1212.51,1020.2c12.2-.96,24.13,3.98,32.07,13.29"/>
    <line class="st1" x1="1296" y1="864" x2="795.7" y2="2513.27"/>
    <line class="st1" x1="1296" y1="864" x2="1127.07" y2="2579.19"/>
    <path class="st1" d="M816.13,2445.92c109.95-31.01,228.11-7.51,317.83,63.22"/>
    <path class="st1" d="M858.98,2304.68c100.13-28.24,207.74-6.84,289.44,57.57"/>
    <path class="st1" d="M901.82,2163.44c90.32-25.47,187.38-6.17,261.08,51.93"/>
    <path class="st1" d="M944.67,2022.19c80.5-22.7,167.01-5.5,232.69,46.28"/>
    <path class="st1" d="M987.52,1880.95c70.68-19.93,146.63-4.83,204.3,40.64"/>
    <path class="st1" d="M1030.36,1739.71c60.87-17.17,126.27-4.16,175.94,35"/>
    <path class="st1" d="M1073.21,1598.46c51.05-14.4,105.9-3.49,147.55,29.35"/>
    <path class="st1" d="M1116.05,1457.22c41.23-11.63,85.54-2.82,119.19,23.71"/>
    <path class="st1" d="M1158.9,1315.98c31.41-8.86,65.17-2.15,90.8,18.06"/>
    <path class="st1" d="M1201.75,1174.74c21.59-6.09,44.8-1.47,62.41,12.42"/>
    <path class="st1" d="M1244.59,1033.49c11.78-3.32,24.44-.8,34.05,6.77"/>
    <line class="st1" x1="1296" y1="864" x2="1127.07" y2="2579.19"/>
    <line class="st1" x1="1296" y1="864" x2="1464.93" y2="2579.19"/>
    <path class="st1" d="M1133.97,2509.14c101.79-51.87,222.26-51.87,324.05,0"/>
    <path class="st1" d="M1148.44,2362.26c92.7-47.23,202.41-47.23,295.11,0"/>
    <path class="st1" d="M1162.9,2215.37c83.62-42.6,182.57-42.6,266.19,0"/>
    <path class="st1" d="M1177.38,2068.48c74.52-37.97,162.72-37.97,237.25,0"/>
    <path class="st1" d="M1191.85,1921.59c65.43-33.34,142.87-33.34,208.31,0"/>
    <path class="st1" d="M1206.31,1774.7c56.35-28.71,123.04-28.71,179.39,0"/>
    <path class="st1" d="M1220.78,1627.82c47.26-24.08,103.19-24.08,150.44,0"/>
    <path class="st1" d="M1235.24,1480.93c38.17-19.45,83.35-19.45,121.52,0"/>
    <path class="st1" d="M1249.71,1334.04c29.08-14.82,63.5-14.82,92.58,0"/>
    <path class="st1" d="M1264.18,1187.15c19.99-10.19,43.65-10.19,63.64,0"/>
    <path class="st1" d="M1278.64,1040.26c10.91-5.56,23.81-5.56,34.72,0"/>
    <line class="st1" x1="1296" y1="864" x2="1464.93" y2="2579.19"/>
    <line class="st1" x1="1296" y1="864" x2="1796.3" y2="2513.27"/>
    <path class="st1" d="M1458.04,2509.14c89.72-70.73,207.87-94.23,317.83-63.22"/>
    <path class="st1" d="M1443.57,2362.25c81.7-64.41,189.31-85.81,289.44-57.57"/>
    <path class="st1" d="M1429.1,2215.37c73.7-58.1,170.75-77.4,261.08-51.93"/>
    <path class="st1" d="M1414.64,2068.48c65.68-51.78,152.19-68.99,232.69-46.28"/>
    <path class="st1" d="M1400.17,1921.59c57.67-45.46,133.62-60.57,204.3-40.64"/>
    <path class="st1" d="M1385.7,1774.7c49.66-39.15,115.07-52.16,175.94-35"/>
    <path class="st1" d="M1371.24,1627.81c41.65-32.84,96.51-43.75,147.55-29.35"/>
    <path class="st1" d="M1356.76,1480.93c33.64-26.52,77.95-35.34,119.19-23.71"/>
    <path class="st1" d="M1342.3,1334.04c25.63-20.21,59.39-26.92,90.8-18.06"/>
    <path class="st1" d="M1327.84,1187.15c17.62-13.89,40.82-18.51,62.41-12.42"/>
    <path class="st1" d="M1313.36,1040.26c9.61-7.58,22.27-10.1,34.05-6.77"/>
    <line class="st1" x1="1296" y1="864" x2="1796.3" y2="2513.27"/>
    <line class="st1" x1="1296" y1="864" x2="2108.45" y2="2383.98"/>
    <path class="st1" d="M1775.88,2445.92c74.2-86.87,185.5-132.97,299.39-124.01"/>
    <path class="st1" d="M1733.03,2304.67c67.57-79.11,168.93-121.1,272.65-112.93"/>
    <path class="st1" d="M1690.18,2163.43c60.95-71.36,152.37-109.23,245.93-101.87"/>
    <path class="st1" d="M1647.34,2022.19c54.32-63.6,135.81-97.35,219.19-90.79"/>
    <path class="st1" d="M1604.5,1880.94c47.69-55.84,119.24-85.48,192.45-79.72"/>
    <path class="st1" d="M1561.65,1739.7c41.07-48.09,102.68-73.61,165.73-68.65"/>
    <path class="st1" d="M1518.8,1598.46c34.45-40.33,86.12-61.73,138.99-57.57"/>
    <path class="st1" d="M1475.95,1457.22c27.82-32.58,69.56-49.87,112.27-46.5"/>
    <path class="st1" d="M1433.11,1315.97c21.2-24.82,52.99-37.99,85.53-35.43"/>
    <path class="st1" d="M1390.27,1174.73c14.57-17.06,36.43-26.11,58.79-24.35"/>
    <path class="st1" d="M1347.42,1033.49c7.95-9.31,19.87-14.25,32.07-13.29"/>
    <line class="st1" x1="1296" y1="864" x2="2108.45" y2="2383.98"/>
    <line class="st1" x1="1296" y1="864" x2="2389.37" y2="2196.27"/>
    <path class="st1" d="M2075.27,2321.9c55.82-99.68,155.99-166.61,269.44-180.03"/>
    <path class="st1" d="M2005.7,2191.73c50.84-90.77,142.06-151.73,245.38-163.96"/>
    <path class="st1" d="M1936.11,2061.56c45.85-81.88,128.14-136.86,221.33-147.89"/>
    <path class="st1" d="M1866.54,1931.39c40.87-72.98,114.2-121.98,197.26-131.81"/>
    <path class="st1" d="M1796.97,1801.22c35.88-64.07,100.27-107.1,173.2-115.73"/>
    <path class="st1" d="M1727.38,1671.05c30.9-55.18,86.35-92.23,149.15-99.66"/>
    <path class="st1" d="M1657.81,1540.88c25.92-46.28,72.42-77.35,125.09-83.58"/>
    <path class="st1" d="M1588.23,1410.71c20.93-37.38,58.5-62.48,101.04-67.51"/>
    <path class="st1" d="M1518.65,1280.54c15.95-28.48,44.56-47.6,76.98-51.43"/>
    <path class="st1" d="M1449.08,1150.37c10.96-19.57,30.63-32.72,52.91-35.36"/>
    <path class="st1" d="M1379.49,1020.2c5.98-10.68,16.71-17.85,28.87-19.29"/>
    <line class="st1" x1="1296" y1="864" x2="2389.37" y2="2196.27"/>
    <line class="st1" x1="1296" y1="864" x2="2628.27" y2="1957.37"/>
    <path class="st1" d="M2344.72,2141.86c35.3-108.65,120.49-193.84,229.14-229.14"/>
    <path class="st1" d="M2251.09,2027.76c32.15-98.95,109.73-176.53,208.68-208.68"/>
    <path class="st1" d="M2157.45,1913.67c29-89.25,98.97-159.23,188.23-188.23"/>
    <path class="st1" d="M2063.82,1799.58c25.85-79.55,88.21-141.91,167.76-167.76"/>
    <path class="st1" d="M1970.18,1685.48c22.69-69.84,77.45-124.6,147.29-147.29"/>
    <path class="st1" d="M1876.54,1571.39c19.54-60.15,66.7-107.3,126.84-126.84"/>
    <path class="st1" d="M1782.91,1457.29c16.39-50.44,55.94-89.99,106.38-106.38"/>
    <path class="st1" d="M1689.27,1343.2c13.24-40.75,45.18-72.69,85.93-85.93"/>
    <path class="st1" d="M1595.64,1229.1c10.09-31.04,34.42-55.38,65.46-65.46"/>
    <path class="st1" d="M1502,1115c6.93-21.34,23.66-38.07,45-45"/>
    <path class="st1" d="M1408.36,1000.91c3.78-11.64,12.91-20.77,24.55-24.55"/>
    <line class="st1" x1="1296" y1="864" x2="2628.27" y2="1957.37"/>
    <line class="st1" x1="1296" y1="864" x2="2815.98" y2="1676.45"/>
    <path class="st1" d="M2573.87,1912.71c13.43-113.45,80.36-213.62,180.03-269.44"/>
    <path class="st1" d="M2459.78,1819.07c12.23-103.32,73.18-194.54,163.96-245.38"/>
    <path class="st1" d="M2345.68,1725.44c11.03-93.19,66.01-175.48,147.89-221.33"/>
    <path class="st1" d="M2231.58,1631.81c9.83-83.06,58.83-156.4,131.81-197.26"/>
    <path class="st1" d="M2117.49,1538.17c8.63-72.93,51.65-137.32,115.73-173.2"/>
    <path class="st1" d="M2003.39,1444.54c7.43-62.8,44.48-118.25,99.66-149.15"/>
    <path class="st1" d="M1889.3,1350.9c6.23-52.67,37.31-99.17,83.58-125.09"/>
    <path class="st1" d="M1775.2,1257.27c5.04-42.55,30.13-80.11,67.51-101.04"/>
    <path class="st1" d="M1661.11,1163.63c3.84-32.41,22.96-61.03,51.43-76.98"/>
    <path class="st1" d="M1547.01,1069.99c2.64-22.28,15.78-41.95,35.36-52.91"/>
    <path class="st1" d="M1432.91,976.36c1.44-12.15,8.61-22.89,19.29-28.87"/>
    <line class="st1" x1="1296" y1="864" x2="2815.98" y2="1676.45"/>
    <line class="st1" x1="1296" y1="864" x2="2945.27" y2="1364.3"/>
    <path class="st1" d="M2753.91,1643.26c-8.96-113.89,37.14-225.19,124.01-299.39"/>
    <path class="st1" d="M2623.74,1573.68c-8.16-103.72,33.82-205.08,112.93-272.65"/>
    <path class="st1" d="M2493.57,1504.11c-7.36-93.56,30.51-184.98,101.87-245.93"/>
    <path class="st1" d="M2363.4,1434.53c-6.56-83.38,27.19-164.87,90.79-219.19"/>
    <path class="st1" d="M2233.23,1364.95c-5.76-73.21,23.87-144.76,79.72-192.45"/>
    <path class="st1" d="M2103.06,1295.38c-4.96-63.05,20.56-124.66,68.65-165.73"/>
    <path class="st1" d="M1972.89,1225.8c-4.16-52.87,17.24-104.55,57.57-138.99"/>
    <path class="st1" d="M1842.71,1156.22c-3.36-42.71,13.93-84.45,46.5-112.27"/>
    <path class="st1" d="M1712.55,1086.64c-2.56-32.54,10.61-64.34,35.43-85.53"/>
    <path class="st1" d="M1582.38,1017.06c-1.76-22.37,7.29-44.22,24.35-58.79"/>
    <path class="st1" d="M1452.2,947.49c-.96-12.2,3.98-24.13,13.29-32.07"/>
    <line class="st1" x1="1296" y1="864" x2="2945.27" y2="1364.3"/>
    <line class="st1" x1="1296" y1="864" x2="3011.19" y2="1032.93"/>
    <path class="st1" d="M2877.92,1343.87c-31.01-109.95-7.51-228.11,63.22-317.83"/>
    <path class="st1" d="M2736.68,1301.02c-28.24-100.13-6.84-207.74,57.57-289.44"/>
    <path class="st1" d="M2595.44,1258.18c-25.47-90.32-6.17-187.38,51.93-261.08"/>
    <path class="st1" d="M2454.19,1215.33c-22.7-80.5-5.5-167.01,46.28-232.69"/>
    <path class="st1" d="M2312.95,1172.48c-19.93-70.68-4.83-146.63,40.64-204.3"/>
    <path class="st1" d="M2171.71,1129.64c-17.17-60.87-4.16-126.27,35-175.94"/>
    <path class="st1" d="M2030.46,1086.79c-14.4-51.05-3.49-105.9,29.35-147.55"/>
    <path class="st1" d="M1889.22,1043.95c-11.63-41.23-2.82-85.54,23.71-119.19"/>
    <path class="st1" d="M1747.98,1001.1c-8.86-31.41-2.15-65.17,18.06-90.8"/>
    <path class="st1" d="M1606.74,958.25c-6.09-21.59-1.47-44.8,12.42-62.41"/>
    <path class="st1" d="M1465.49,915.41c-3.32-11.78-.8-24.44,6.77-34.05"/>
    <line class="st1" x1="1296" y1="864" x2="3011.19" y2="1032.93"/>
    <line class="st1" x1="1296" y1="864" x2="3011.19" y2="695.07"/>
    <path class="st1" d="M2941.14,1026.03c-51.87-101.79-51.87-222.26,0-324.05"/>
    <path class="st1" d="M2794.26,1011.56c-47.23-92.7-47.23-202.41,0-295.11"/>
    <path class="st1" d="M2647.37,997.1c-42.6-83.62-42.6-182.57,0-266.19"/>
    <path class="st1" d="M2500.48,982.62c-37.97-74.52-37.97-162.72,0-237.25"/>
    <path class="st1" d="M2353.59,968.15c-33.34-65.43-33.34-142.87,0-208.31"/>
    <path class="st1" d="M2206.7,953.69c-28.71-56.35-28.71-123.04,0-179.39"/>
    <path class="st1" d="M2059.82,939.22c-24.08-47.26-24.08-103.19,0-150.44"/>
    <path class="st1" d="M1912.93,924.76c-19.45-38.17-19.45-83.35,0-121.52"/>
    <path class="st1" d="M1766.04,910.29c-14.82-29.08-14.82-63.5,0-92.58"/>
    <path class="st1" d="M1619.15,895.82c-10.19-19.99-10.19-43.65,0-63.64"/>
    <path class="st1" d="M1472.26,881.36c-5.56-10.91-5.56-23.81,0-34.72"/>
    <line class="st1" x1="1296" y1="864" x2="3011.19" y2="695.07"/>
    <line class="st1" x1="1296" y1="864" x2="2945.27" y2="363.7"/>
    <path class="st1" d="M2941.14,701.96c-70.73-89.72-94.23-207.87-63.22-317.83"/>
    <path class="st1" d="M2794.25,716.43c-64.41-81.7-85.81-189.31-57.57-289.44"/>
    <path class="st1" d="M2647.37,730.9c-58.1-73.7-77.4-170.75-51.93-261.08"/>
    <path class="st1" d="M2500.48,745.36c-51.78-65.68-68.99-152.19-46.28-232.69"/>
    <path class="st1" d="M2353.59,759.83c-45.46-57.67-60.57-133.62-40.64-204.3"/>
    <path class="st1" d="M2206.7,774.3c-39.15-49.66-52.16-115.07-35-175.94"/>
    <path class="st1" d="M2059.81,788.76c-32.84-41.65-43.75-96.51-29.35-147.55"/>
    <path class="st1" d="M1912.93,803.24c-26.52-33.64-35.34-77.95-23.71-119.19"/>
    <path class="st1" d="M1766.04,817.7c-20.21-25.63-26.92-59.39-18.06-90.8"/>
    <path class="st1" d="M1619.15,832.16c-13.89-17.62-18.51-40.82-12.42-62.41"/>
    <path class="st1" d="M1472.26,846.64c-7.58-9.61-10.1-22.27-6.77-34.05"/>
    <line class="st1" x1="1296" y1="864" x2="2945.27" y2="363.7"/>
    <line class="st1" x1="1296" y1="864" x2="2815.98" y2="51.55"/>
    <path class="st1" d="M2877.92,384.12c-86.87-74.2-132.97-185.5-124.01-299.39"/>
    <path class="st1" d="M2736.67,426.97c-79.11-67.57-121.1-168.93-112.93-272.65"/>
    <path class="st1" d="M2595.43,469.82c-71.36-60.95-109.23-152.37-101.87-245.93"/>
    <path class="st1" d="M2454.19,512.66c-63.6-54.32-97.35-135.81-90.79-219.19"/>
    <path class="st1" d="M2312.94,555.5c-55.84-47.69-85.48-119.24-79.72-192.45"/>
    <path class="st1" d="M2171.7,598.35c-48.09-41.07-73.61-102.68-68.65-165.73"/>
    <path class="st1" d="M2030.46,641.2c-40.33-34.45-61.73-86.12-57.57-138.99"/>
    <path class="st1" d="M1889.22,684.05c-32.58-27.82-49.87-69.56-46.5-112.27"/>
    <path class="st1" d="M1747.97,726.89c-24.82-21.2-37.99-52.99-35.43-85.53"/>
    <path class="st1" d="M1606.73,769.73c-17.06-14.57-26.11-36.43-24.35-58.79"/>
    <path class="st1" d="M1465.49,812.58c-9.31-7.95-14.25-19.87-13.29-32.07"/>
    <line class="st1" x1="1296" y1="864" x2="2815.98" y2="51.55"/>
    <line class="st1" x1="1296" y1="864" x2="2628.27" y2="-229.37"/>
    <path class="st1" d="M2753.9,84.73c-99.68-55.82-166.61-155.99-180.03-269.44"/>
    <path class="st1" d="M2623.73,154.3c-90.77-50.84-151.73-142.06-163.96-245.38"/>
    <path class="st1" d="M2493.56,223.89c-81.88-45.85-136.86-128.14-147.89-221.33"/>
    <path class="st1" d="M2363.39,293.46c-72.98-40.87-121.98-114.2-131.81-197.26"/>
    <path class="st1" d="M2233.22,363.03c-64.07-35.88-107.1-100.27-115.73-173.2"/>
    <path class="st1" d="M2103.05,432.62c-55.18-30.9-92.23-86.35-99.66-149.15"/>
    <path class="st1" d="M1972.88,502.19c-46.28-25.92-77.35-72.42-83.58-125.09"/>
    <path class="st1" d="M1842.71,571.77c-37.38-20.93-62.48-58.5-67.51-101.04"/>
    <path class="st1" d="M1712.54,641.35c-28.48-15.95-47.6-44.56-51.43-76.98"/>
    <path class="st1" d="M1582.37,710.92c-19.57-10.96-32.72-30.63-35.36-52.91"/>
    <path class="st1" d="M1452.2,780.51c-10.68-5.98-17.85-16.71-19.29-28.87"/>
    <line class="st1" x1="1296" y1="864" x2="2628.27" y2="-229.37"/>
    <line class="st1" x1="1296" y1="864" x2="2389.37" y2="-468.27"/>
    <path class="st1" d="M2573.86-184.72c-108.65-35.3-193.84-120.49-229.14-229.14"/>
    <path class="st1" d="M2459.76-91.09c-98.95-32.15-176.53-109.73-208.68-208.68"/>
    <path class="st1" d="M2345.67,2.55c-89.25-29-159.23-98.97-188.23-188.23"/>
    <path class="st1" d="M2231.58,96.18c-79.55-25.85-141.91-88.21-167.76-167.76"/>
    <path class="st1" d="M2117.48,189.82c-69.84-22.69-124.6-77.45-147.29-147.29"/>
    <path class="st1" d="M2003.39,283.46c-60.15-19.54-107.3-66.7-126.84-126.84"/>
    <path class="st1" d="M1889.29,377.09c-50.44-16.39-89.99-55.94-106.38-106.38"/>
    <path class="st1" d="M1775.2,470.73c-40.75-13.24-72.69-45.18-85.93-85.93"/>
    <path class="st1" d="M1661.1,564.36c-31.04-10.09-55.38-34.42-65.46-65.46"/>
    <path class="st1" d="M1547,658c-21.34-6.93-38.07-23.66-45-45"/>
    <path class="st1" d="M1432.91,751.64c-11.64-3.78-20.77-12.91-24.55-24.55"/>
    <line class="st1" x1="1296" y1="864" x2="2389.37" y2="-468.27"/>
    <line class="st1" x1="1296" y1="864" x2="2108.45" y2="-655.98"/>
    <path class="st1" d="M2344.71-413.87c-113.45-13.43-213.62-80.36-269.44-180.03"/>
    <path class="st1" d="M2251.07-299.78c-103.32-12.23-194.54-73.18-245.38-163.96"/>
    <path class="st1" d="M2157.44-185.68c-93.19-11.03-175.48-66.01-221.33-147.89"/>
    <path class="st1" d="M2063.81-71.58c-83.06-9.83-156.4-58.83-197.26-131.81"/>
    <path class="st1" d="M1970.17,42.51c-72.93-8.63-137.32-51.65-173.2-115.73"/>
    <path class="st1" d="M1876.54,156.61c-62.8-7.43-118.25-44.48-149.15-99.66"/>
    <path class="st1" d="M1782.9,270.7c-52.67-6.23-99.17-37.31-125.09-83.58"/>
    <path class="st1" d="M1689.27,384.8c-42.55-5.04-80.11-30.13-101.04-67.51"/>
    <path class="st1" d="M1595.63,498.89c-32.41-3.84-61.03-22.96-76.98-51.43"/>
    <path class="st1" d="M1501.99,612.99c-22.28-2.64-41.95-15.78-52.91-35.36"/>
    <path class="st1" d="M1408.36,727.09c-12.15-1.44-22.89-8.61-28.87-19.29"/>
    <line class="st1" x1="1296" y1="864" x2="2108.45" y2="-655.98"/>
    <line class="st1" x1="1296" y1="864" x2="1796.3" y2="-785.27"/>
    <path class="st1" d="M2075.26-593.91c-113.89,8.96-225.19-37.14-299.39-124.01"/>
    <path class="st1" d="M2005.68-463.74c-103.72,8.16-205.08-33.82-272.65-112.93"/>
    <path class="st1" d="M1936.11-333.57c-93.56,7.36-184.98-30.51-245.93-101.87"/>
    <path class="st1" d="M1866.53-203.4c-83.38,6.56-164.87-27.19-219.19-90.79"/>
    <path class="st1" d="M1796.95-73.23c-73.21,5.76-144.76-23.87-192.45-79.72"/>
    <path class="st1" d="M1727.38,56.94c-63.05,4.96-124.66-20.56-165.73-68.65"/>
    <path class="st1" d="M1657.8,187.11c-52.87,4.16-104.55-17.24-138.99-57.57"/>
    <path class="st1" d="M1588.22,317.29c-42.71,3.36-84.45-13.93-112.27-46.5"/>
    <path class="st1" d="M1518.64,447.45c-32.54,2.56-64.34-10.61-85.53-35.43"/>
    <path class="st1" d="M1449.06,577.62c-22.37,1.76-44.22-7.29-58.79-24.35"/>
    <path class="st1" d="M1379.49,707.8c-12.2.96-24.13-3.98-32.07-13.29"/>
    <line class="st1" x1="1296" y1="864" x2="1796.3" y2="-785.27"/>
    <line class="st1" x1="1296" y1="864" x2="1464.93" y2="-851.19"/>
    <path class="st1" d="M1775.87-717.92c-109.95,31.01-228.11,7.51-317.83-63.22"/>
    <path class="st1" d="M1733.02-576.68c-100.13,28.24-207.74,6.84-289.44-57.57"/>
    <path class="st1" d="M1690.18-435.44c-90.32,25.47-187.38,6.17-261.08-51.93"/>
    <path class="st1" d="M1647.33-294.19c-80.5,22.7-167.01,5.5-232.69-46.28"/>
    <path class="st1" d="M1604.48-152.95c-70.68,19.93-146.63,4.83-204.3-40.64"/>
    <path class="st1" d="M1561.64-11.71c-60.87,17.17-126.27,4.16-175.94-35"/>
    <path class="st1" d="M1518.79,129.54c-51.05,14.4-105.9,3.49-147.55-29.35"/>
    <path class="st1" d="M1475.95,270.78c-41.23,11.63-85.54,2.82-119.19-23.71"/>
    <path class="st1" d="M1433.1,412.02c-31.41,8.86-65.17,2.15-90.8-18.06"/>
    <path class="st1" d="M1390.25,553.26c-21.59,6.09-44.8,1.47-62.41-12.42"/>
    <path class="st1" d="M1347.41,694.51c-11.78,3.32-24.44.8-34.05-6.77"/>
  </g>
</svg>